<svg width="48" height="48" viewBox="0 0 48 48" fill="none" xmlns="http://www.w3.org/2000/svg">
  <path d="M10 18h24v16c0 3.314-2.686 6-6 6h-12c-3.314 0-6-2.686-6-6V18z" fill="#6B4423"/>
  <path d="M34 22h2c2.209 0 4 1.791 4 4v2c0 2.209-1.791 4-4 4h-2" stroke="#6B4423" stroke-width="2.5" stroke-linecap="round" fill="none"/>
  <rect x="10" y="18" width="24" height="3" fill="#4A2F1A"/>
  <g opacity="0.3">
    <rect x="15" y="24" width="2" height="2" fill="white"/>
    <rect x="19" y="24" width="2" height="2" fill="white"/>
    <rect x="27" y="24" width="2" height="2" fill="white"/>
    <rect x="15" y="28" width="2" height="2" fill="white"/>
    <rect x="23" y="28" width="2" height="2" fill="white"/>
    <rect x="27" y="28" width="2" height="2" fill="white"/>
    <rect x="19" y="32" width="2" height="2" fill="white"/>
    <rect x="23" y="32" width="2" height="2" fill="white"/>
  </g>
  <g stroke="#6B4423" stroke-width="2" stroke-linecap="round" fill="none">
    <path d="M16 14c0-2 1-3 2-3s2 1 2 3" opacity="0.6"/>
    <path d="M22 13c0-2 1-3 2-3s2 1 2 3" opacity="0.8"/>
    <path d="M28 14c0-2 1-3 2-3s2 1 2 3" opacity="0.6"/>
  </g>
</svg>